Coordinates
version=1
nRows=19
nColumns=18
inDegrees=yes

Units are S.I. units (second, meters, Newtons, ...)
Angles are in degrees.

endheader
time	ground_thorax_rot_x	ground_thorax_rot_y	ground_thorax_rot_z	ground_thorax_tx	ground_thorax_ty	ground_thorax_tz	clav_prot	clav_elev	scapula_abduction	scapula_elevation	scapula_upward_rot	scapula_winging	plane_elv	shoulder_elv	axial_rot	elbow_flexion	pro_sup
      3.60000000	      1.89832169	     -9.88371051	    -10.48680069	     -0.00423131	      0.00403036	     -0.00078352	    -22.05370981	     -2.52451895	    -13.00481705	     -2.19599487	     11.36335565	      5.29505754	    -14.75605117	     16.45280106	     24.99794673	      0.00000000	     34.32000000
      3.61000000	      1.52108239	    -10.04670636	    -10.47139214	     -0.00423131	      0.00403036	     -0.00078352	    -21.77271469	     -2.88290908	    -12.70544152	     -2.31272194	     10.84525054	      5.50792985	    -15.01972113	     16.68082213	     24.77582386	      0.00000000	     34.32000000
      3.62000000	      1.52696950	     -9.99630463	    -10.46622502	     -0.00423131	      0.00403036	     -0.00078352	    -21.74460724	     -2.86705574	    -12.68089261	     -2.28893033	     10.80913468	      5.51162509	    -15.00288254	     16.57244268	     24.79271479	      0.00000000	     34.32000000
      3.63000000	      1.43063441	    -10.17386583	    -10.46380467	     -0.00423131	      0.00403036	     -0.00078352	    -21.53298292	     -2.92951989	    -12.33931910	     -2.30267036	     10.72930475	      5.53538772	    -15.00403996	     16.59844605	     24.01277036	      0.00000000	     34.32000000
      3.64000000	      1.45700759	    -10.13864565	    -10.42527500	     -0.00423131	      0.00403036	     -0.00078352	    -21.52872017	     -2.93628003	    -12.33142135	     -2.30676446	     10.72641362	      5.53753525	    -14.99176585	     16.56802001	     24.02656966	      0.00000000	     34.32000000
      3.65000000	      1.49923695	    -10.02518506	    -10.39213830	     -0.00423131	      0.00403036	     -0.00078352	    -21.64038781	     -2.97618590	    -12.47614737	     -2.36341690	     10.79661658	      5.53623145	    -15.60772002	     15.75387863	     32.25486851	      0.00000000	     34.32000000
      3.66000000	      1.52219997	    -10.01064753	    -10.37793931	     -0.00423131	      0.00403036	     -0.00078352	    -21.65698194	     -3.10386466	    -12.50532593	     -2.44520507	     10.73307018	      5.58684596	    -15.61230965	     15.92593819	     31.33572233	      0.00000000	     34.32000000
      3.67000000	      1.73716989	    -10.07439462	    -10.29693734	     -0.00423131	      0.00403036	     -0.00078352	    -21.59500897	     -2.99032012	    -12.45431497	     -2.34129878	     10.68672886	      5.56634620	    -14.63784935	     16.24902268	     29.66069719	      0.00000000	     34.32000000
      3.68000000	      1.79156818	    -10.06438950	    -10.28794975	     -0.00423131	      0.00403036	     -0.00078352	    -21.59683709	     -3.02525611	    -12.44870245	     -2.36789595	     10.68512115	      5.57550454	    -14.65432284	     16.24154651	     29.66501811	      0.00000000	     34.32000000
      3.69000000	      1.31654706	     -9.95648773	    -10.45306110	     -0.00423131	      0.00403036	     -0.00078352	    -21.55117292	     -3.69757198	    -12.47695651	     -2.73950428	     10.16318689	      5.88727167	    -15.26784003	     16.49077241	     28.91514199	      0.00000000	     34.32000000
      3.70000000	      1.51370407	     -9.97441479	    -10.48896605	     -0.00423131	      0.00403036	     -0.00078352	    -21.46776736	     -3.53444230	    -12.26542371	     -2.66363989	     10.36183500	      5.78552346	    -15.29707867	     16.54254155	     27.67749708	      0.00000000	     34.32000000
      3.71000000	      1.54386899	    -10.10796898	    -10.36507105	     -0.00423131	      0.00403036	     -0.00078352	    -21.26615942	     -3.53932321	    -11.87164403	     -2.67623165	     10.43627216	      5.75239685	    -16.21828166	     16.55254603	     28.66192494	      0.00000000	     34.32000000
      3.72000000	      1.57197261	    -10.04340844	    -10.38984970	     -0.00423131	      0.00403036	     -0.00078352	    -21.24752742	     -3.67112357	    -11.80793919	     -2.77504900	     10.42988145	      5.78837803	    -16.71403235	     16.60702062	     28.71405503	      0.00000000	     34.32000000
      3.73000000	      1.55989012	     -9.86930614	    -10.37037609	     -0.00423131	      0.00403036	     -0.00078352	    -21.29970011	     -3.80860327	    -11.92010583	     -2.85558654	     10.32625496	      5.85717019	    -17.30573406	     16.63484867	     29.09418778	      0.00000000	     34.32000000
      3.74000000	      1.58480973	     -9.75652476	    -10.35803320	     -0.00423131	      0.00403036	     -0.00078352	    -21.31894355	     -3.89763976	    -11.96250288	     -2.90941605	     10.26818720	      5.89853103	    -17.64091514	     16.67584472	     29.10838576	      0.00000000	     34.32000000
      3.75000000	      1.62223765	     -9.75340818	    -10.30482490	     -0.00423131	      0.00403036	     -0.00078352	    -21.22062099	     -3.92159589	    -11.79939582	     -2.91493474	     10.24190839	      5.90422585	    -17.93976357	     16.69600099	     29.70233804	      0.00000000	     34.32000000
      3.76000000	      1.61553428	     -9.85885221	    -10.32194289	     -0.00423131	      0.00403036	     -0.00078352	    -20.99749531	     -3.99828511	    -11.36041760	     -2.97662892	     10.29742266	      5.89276010	    -18.38346291	     16.66464458	     30.12307180	      0.00000000	     34.32000000
      3.77000000	      1.65620071	     -9.74498403	    -10.31767166	     -0.00423131	      0.00403036	     -0.00078352	    -20.97670956	     -4.01847150	    -11.31976218	     -2.99053140	     10.29592866	      5.89721962	    -18.38820387	     16.69128503	     30.13366867	      0.00000000	     34.32000000
      3.78000000	      1.60967943	     -9.73451894	    -10.36802699	     -0.00423131	      0.00403036	     -0.00078352	    -20.82698903	     -4.20748967	    -11.04466068	     -3.11074470	     10.23385868	      5.95315337	    -18.98327251	     16.95018489	     28.95964241	      0.00000000	     34.32000000
